<?xml version="1.0" encoding="utf-8"?>
<!-- Generator: Adobe Illustrator 16.0.0, SVG Export Plug-In . SVG Version: 6.00 Build 0)  -->
<!DOCTYPE svg PUBLIC "-//W3C//DTD SVG 1.1//EN" "http://www.w3.org/Graphics/SVG/1.1/DTD/svg11.dtd">
<svg version="1.1" id="Layer_1" xmlns="http://www.w3.org/2000/svg" xmlns:xlink="http://www.w3.org/1999/xlink" x="0px" y="0px"
	 width="1000px" height="200px" viewBox="0 0 1000 200" enable-background="new 0 0 1000 200" xml:space="preserve">
<g>
	<path fill="#FFFFFF" d="M270.888,114.635c0.902,0,1.773-0.064,2.615-0.196c0.841-0.132,1.507-0.268,2-0.409v3.849
		c-0.554,0.263-1.369,0.479-2.446,0.651c-1.077,0.171-2.045,0.258-2.907,0.258c-6.521,0-9.782-3.384-9.782-10.151V88.878h-4.83
		v-2.424l4.83-2.091l2.153-7.091h2.953v7.697h9.782v3.909h-9.782v19.545c0,2,0.481,3.536,1.446,4.606
		C267.883,114.101,269.206,114.635,270.888,114.635z"/>
	<path fill="#FFFFFF" d="M305.31,118.181V96.696c0-2.707-0.626-4.727-1.876-6.061c-1.251-1.333-3.21-2-5.875-2
		c-3.548,0-6.137,0.95-7.768,2.848c-1.63,1.899-2.445,5.01-2.445,9.333v17.363h-5.106V71.03h5.106v14.272
		c0,1.717-0.082,3.142-0.246,4.272h0.308c1.004-1.595,2.435-2.853,4.291-3.772c1.856-0.919,3.973-1.379,6.353-1.379
		c4.122,0,7.213,0.965,9.274,2.894s3.092,4.995,3.092,9.197v21.667H305.31z"/>
	<path fill="#FFFFFF" d="M335.149,118.787c-4.983,0-8.916-1.495-11.797-4.485c-2.881-2.989-4.322-7.141-4.322-12.454
		c0-5.354,1.338-9.606,4.014-12.758c2.676-3.151,6.271-4.727,10.782-4.727c4.225,0,7.567,1.369,10.028,4.106
		c2.461,2.738,3.691,6.349,3.691,10.833v3.181h-23.225c0.103,3.899,1.102,6.859,2.999,8.879c1.897,2.021,4.568,3.03,8.014,3.03
		c3.63,0,7.218-0.747,10.767-2.242v4.484c-1.805,0.769-3.512,1.318-5.122,1.652C339.368,118.62,337.425,118.787,335.149,118.787z
		 M333.765,88.575c-2.707,0-4.866,0.869-6.476,2.606s-2.558,4.141-2.845,7.212h17.626c0-3.171-0.718-5.601-2.153-7.288
		C338.481,89.418,336.43,88.575,333.765,88.575z"/>
	<path fill="#FAA74A" d="M369.725,118.787c-4.881,0-8.66-1.48-11.336-4.439c-2.676-2.96-4.014-7.146-4.014-12.561
		c0-5.556,1.358-9.849,4.076-12.879s6.588-4.545,11.613-4.545c1.62,0,3.24,0.172,4.86,0.515c1.62,0.344,2.892,0.748,3.814,1.212
		l-1.569,4.273c-1.128-0.444-2.358-0.813-3.691-1.106c-1.333-0.293-2.512-0.439-3.538-0.439c-6.85,0-10.274,4.303-10.274,12.909
		c0,4.081,0.835,7.212,2.507,9.394s4.148,3.272,7.429,3.272c2.81,0,5.691-0.596,8.644-1.788v4.455
		C375.99,118.211,373.15,118.787,369.725,118.787z"/>
	<path fill="#FAA74A" d="M415.344,101.545c0,5.414-1.384,9.641-4.153,12.682c-2.769,3.04-6.594,4.561-11.474,4.561
		c-3.015,0-5.691-0.697-8.029-2.091c-2.338-1.395-4.143-3.395-5.414-6c-1.272-2.606-1.907-5.656-1.907-9.151
		c0-5.414,1.374-9.631,4.122-12.652c2.748-3.02,6.563-4.53,11.443-4.53c4.717,0,8.464,1.545,11.243,4.636
		S415.344,96.272,415.344,101.545z M389.658,101.545c0,4.242,0.861,7.475,2.584,9.696c1.723,2.223,4.255,3.333,7.598,3.333
		c3.342,0,5.88-1.105,7.613-3.317c1.733-2.213,2.6-5.449,2.6-9.712c0-4.223-0.867-7.429-2.6-9.622
		c-1.733-2.192-4.291-3.288-7.675-3.288c-3.343,0-5.865,1.081-7.567,3.242C390.509,94.04,389.658,97.262,389.658,101.545z"/>
	<path fill="#FAA74A" d="M453.396,101.545c0,5.414-1.384,9.641-4.153,12.682c-2.769,3.04-6.594,4.561-11.474,4.561
		c-3.015,0-5.691-0.697-8.029-2.091c-2.338-1.395-4.143-3.395-5.414-6c-1.272-2.606-1.907-5.656-1.907-9.151
		c0-5.414,1.374-9.631,4.122-12.652c2.748-3.02,6.563-4.53,11.443-4.53c4.717,0,8.464,1.545,11.243,4.636
		S453.396,96.272,453.396,101.545z M427.71,101.545c0,4.242,0.861,7.475,2.584,9.696c1.723,2.223,4.255,3.333,7.598,3.333
		c3.342,0,5.88-1.105,7.613-3.317c1.733-2.213,2.6-5.449,2.6-9.712c0-4.223-0.867-7.429-2.6-9.622
		c-1.733-2.192-4.291-3.288-7.675-3.288c-3.343,0-5.865,1.081-7.567,3.242C428.561,94.04,427.71,97.262,427.71,101.545z"/>
	<path fill="#FAA74A" d="M467.393,101.181c0.881-1.232,2.225-2.848,4.03-4.848l10.89-11.364h6.06L474.714,99.12l14.612,19.061
		h-6.183l-11.905-15.697l-3.845,3.273v12.424h-5.045V71.03h5.045v25c0,1.111-0.082,2.829-0.246,5.151H467.393z"/>
	<path fill="#FAA74A" d="M494.986,75.969c0-1.151,0.287-1.995,0.861-2.53c0.574-0.535,1.292-0.803,2.153-0.803
		c0.82,0,1.527,0.272,2.123,0.818c0.595,0.546,0.892,1.384,0.892,2.515c0,1.132-0.297,1.975-0.892,2.53
		c-0.595,0.556-1.303,0.833-2.123,0.833c-0.861,0-1.58-0.277-2.153-0.833C495.273,77.944,494.986,77.101,494.986,75.969z
		 M500.523,118.181h-5.106V84.969h5.106V118.181z"/>
	<path fill="#FAA74A" d="M525.594,118.787c-4.983,0-8.916-1.495-11.797-4.485c-2.881-2.989-4.322-7.141-4.322-12.454
		c0-5.354,1.339-9.606,4.015-12.758c2.677-3.151,6.271-4.727,10.782-4.727c4.225,0,7.567,1.369,10.028,4.106
		c2.461,2.738,3.691,6.349,3.691,10.833v3.181h-23.226c0.103,3.899,1.103,6.859,3,8.879c1.896,2.021,4.567,3.03,8.013,3.03
		c3.63,0,7.219-0.747,10.767-2.242v4.484c-1.805,0.769-3.512,1.318-5.121,1.652C529.813,118.62,527.87,118.787,525.594,118.787z
		 M524.21,88.575c-2.707,0-4.865,0.869-6.476,2.606s-2.559,4.141-2.846,7.212h17.627c0-3.171-0.718-5.601-2.153-7.288
		C528.927,89.418,526.876,88.575,524.21,88.575z"/>
	<path fill="#FFFFFF" d="M561.893,88.878h-8.583v29.303h-5.106V88.878h-6.029v-2.272l6.029-1.818v-1.849
		c0-8.161,3.62-12.242,10.859-12.242c1.784,0,3.876,0.354,6.275,1.061l-1.323,4.03c-1.969-0.626-3.65-0.939-5.045-0.939
		c-1.928,0-3.353,0.632-4.275,1.894c-0.923,1.263-1.385,3.288-1.385,6.076v2.151h8.583V88.878z"/>
	<path fill="#FFFFFF" d="M588.778,118.181l-1.016-4.728h-0.246c-1.682,2.081-3.357,3.49-5.029,4.228s-3.758,1.106-6.26,1.106
		c-3.343,0-5.963-0.849-7.859-2.546c-1.897-1.697-2.846-4.11-2.846-7.242c0-6.707,5.444-10.222,16.334-10.545l5.722-0.182v-2.061
		c0-2.606-0.568-4.53-1.707-5.773c-1.138-1.242-2.958-1.864-5.46-1.864c-2.81,0-5.988,0.849-9.536,2.545l-1.569-3.848
		c1.661-0.889,3.481-1.586,5.461-2.091c1.979-0.505,3.963-0.758,5.952-0.758c4.02,0,6.998,0.879,8.937,2.636
		c1.938,1.758,2.906,4.576,2.906,8.455v22.667H588.778z M577.242,114.635c3.179,0,5.676-0.858,7.491-2.575
		c1.814-1.717,2.722-4.121,2.722-7.212v-3l-5.106,0.212c-4.061,0.142-6.987,0.763-8.782,1.863c-1.795,1.102-2.691,2.813-2.691,5.137
		c0,1.818,0.559,3.202,1.677,4.151C573.669,114.161,575.232,114.635,577.242,114.635z"/>
	<path fill="#FFFFFF" d="M616.557,118.787c-4.881,0-8.659-1.48-11.336-4.439c-2.676-2.96-4.015-7.146-4.015-12.561
		c0-5.556,1.358-9.849,4.076-12.879s6.588-4.545,11.612-4.545c1.62,0,3.24,0.172,4.86,0.515c1.62,0.344,2.892,0.748,3.814,1.212
		l-1.568,4.273c-1.128-0.444-2.358-0.813-3.691-1.106s-2.513-0.439-3.538-0.439c-6.85,0-10.274,4.303-10.274,12.909
		c0,4.081,0.836,7.212,2.508,9.394c1.671,2.182,4.147,3.272,7.429,3.272c2.81,0,5.69-0.596,8.644-1.788v4.455
		C622.821,118.211,619.981,118.787,616.557,118.787z"/>
	<path fill="#FFFFFF" d="M643.965,114.635c0.902,0,1.773-0.064,2.614-0.196s1.508-0.268,2-0.409v3.849
		c-0.554,0.263-1.369,0.479-2.445,0.651c-1.077,0.171-2.046,0.258-2.907,0.258c-6.521,0-9.782-3.384-9.782-10.151V88.878h-4.83
		v-2.424l4.83-2.091l2.153-7.091h2.953v7.697h9.782v3.909h-9.782v19.545c0,2,0.481,3.536,1.445,4.606
		C640.96,114.101,642.283,114.635,643.965,114.635z"/>
	<path fill="#FFFFFF" d="M684.417,101.545c0,5.414-1.385,9.641-4.153,12.682c-2.769,3.04-6.593,4.561-11.474,4.561
		c-3.015,0-5.691-0.697-8.029-2.091c-2.338-1.395-4.143-3.395-5.414-6c-1.271-2.606-1.907-5.656-1.907-9.151
		c0-5.414,1.374-9.631,4.122-12.652c2.748-3.02,6.563-4.53,11.443-4.53c4.717,0,8.465,1.545,11.244,4.636
		C683.027,92.09,684.417,96.272,684.417,101.545z M658.73,101.545c0,4.242,0.861,7.475,2.584,9.696
		c1.723,2.223,4.256,3.333,7.599,3.333s5.88-1.105,7.613-3.317c1.733-2.213,2.6-5.449,2.6-9.712c0-4.223-0.866-7.429-2.6-9.622
		c-1.733-2.192-4.291-3.288-7.675-3.288c-3.343,0-5.865,1.081-7.567,3.242C659.582,94.04,658.73,97.262,658.73,101.545z"/>
	<path fill="#FFFFFF" d="M708.749,84.363c1.497,0,2.84,0.121,4.029,0.364l-0.707,4.667c-1.395-0.303-2.625-0.455-3.691-0.455
		c-2.728,0-5.061,1.091-6.998,3.273c-1.938,2.182-2.907,4.899-2.907,8.151v17.818h-5.106V84.969h4.214l0.585,6.151h0.246
		c1.251-2.161,2.758-3.828,4.521-5C704.698,84.949,706.637,84.363,708.749,84.363z"/>
	<path fill="#FFFFFF" d="M713.732,84.969h5.476l7.383,18.939c1.62,4.323,2.625,7.444,3.015,9.363h0.246
		c0.267-1.03,0.825-2.792,1.677-5.288c0.851-2.494,3.635-10.166,8.352-23.015h5.476l-14.489,37.818
		c-1.436,3.736-3.111,6.389-5.029,7.954s-4.271,2.349-7.06,2.349c-1.559,0-3.097-0.172-4.614-0.516v-4.03
		c1.128,0.242,2.389,0.364,3.783,0.364c3.507,0,6.009-1.939,7.506-5.818l1.877-4.728L713.732,84.969z"/>
</g>
<g>
	<g>
		<defs>
			<rect id="SVGID_1_" x="28" width="200" height="200"/>
		</defs>
		<clipPath id="SVGID_2_">
			<use xlink:href="#SVGID_1_"  overflow="visible"/>
		</clipPath>
		<g clip-path="url(#SVGID_2_)">
			<defs>
				<rect id="SVGID_3_" x="28" width="200" height="200"/>
			</defs>
			<clipPath id="SVGID_4_">
				<use xlink:href="#SVGID_3_"  overflow="visible"/>
			</clipPath>
			<path display="none" clip-path="url(#SVGID_4_)" fill-rule="evenodd" clip-rule="evenodd" d="M28,0h200v200H28V0z M108.7,11.52
				C89.046,17.013,74.077,24.7,61.425,38.934c-19.91,22.401-27.809,48.436-22.171,77.928c3.818,19.97,13.768,36.844,29.114,50.309
				c9.947,8.728,21.433,15.092,34.257,18.845c4.061,1.189,4.551,0.792,5.237-3.229c7.451-43.667,14.904-87.333,22.349-131.002
				c2.167-12.705,4.326-25.41,6.448-38.122c0.526-3.152,0.098-3.729-3.116-3.947c-2.479-0.168-3.689-0.114-7.47-0.034
				C121.753,9.773,116.546,9.699,108.7,11.52 M157.199,21.725c0.091-6.521,0.066-6.554-5.032-7.94
				c-3.188-0.867-3.221-0.872-3.758,2.277c-1.996,11.715-3.927,23.441-5.982,35.145c-0.4,2.277,0.093,3.511,2.431,4.374
				c10.354,3.819,18.41,10.545,24.246,19.789c7.287,11.54,8.795,24.098,5.819,37.19c-2.212,9.73-7.701,17.674-15.248,24.086
				c-8.977,7.627-19.387,11.921-31.401,11.802c-1.645-0.017-2.326,0.741-2.523,2.326c-0.314,2.525-0.809,5.027-1.233,7.538
				c-1.605,9.511-3.227,19.02-4.81,28.534c-0.468,2.811-0.262,3.022,2.575,3.316c0.464,0.049,0.937,0.046,1.396,0.12
				c2.144,0.352,3.613-0.348,4.327-2.494c0.536-1.61,1.295-3.146,1.819-4.759c0.92-2.829,2.701-4.439,5.74-5.021
				c6.802-1.303,13.56-2.826,20.333-4.274c3.029-0.648,5.686-0.172,7.899,2.18c1.058,1.123,2.369,2.007,3.474,3.09
				c1.362,1.338,2.763,1.606,4.377,0.503c5.372-3.675,10.874-7.177,16.083-11.063c4.901-3.656,4.813-3.854,2.189-9.29
				c-1.472-3.05-1.456-5.844,0.52-8.721c3.326-4.843,6.79-9.631,9.631-14.75c2.548-4.59,5.841-6.967,11.199-6.384
				c2.111,0.229,3.317-0.928,3.683-3.014c1.088-6.227,2.414-12.421,3.262-18.678c0.767-5.662,1.345-5.34-4.348-7.679
				c-2.882-1.184-4.509-3.035-5.134-6.246c-1.251-6.431-2.817-12.814-4.565-19.133c-1.041-3.759-0.507-6.817,2.429-9.429
				c0.521-0.463,0.965-1.013,1.5-1.459c1.626-1.36,1.955-2.921,0.736-4.683c-4.17-6.032-8.213-12.158-12.606-18.027
				c-2.369-3.166-2.789-2.986-6.543-1.397c-1.218,0.515-2.454,0.984-3.687,1.46c-2.406,0.929-4.627,0.727-6.873-0.681
				c-5.657-3.545-11.254-7.227-17.152-10.339C157.975,27.885,156.963,24.846,157.199,21.725"/>
			<path clip-path="url(#SVGID_4_)" fill-rule="evenodd" clip-rule="evenodd" fill="#FFFFFF" d="M126.13,9.682
				c0,0,4.99-0.134,7.47,0.034c3.215,0.217,3.643,0.794,3.116,3.947c-2.122,12.712-4.281,25.417-6.447,38.122
				c-7.444,43.669-14.898,87.335-22.349,131.002c-0.686,4.021-1.176,4.419-5.237,3.229c-12.824-3.753-24.31-10.117-34.257-18.845
				c-15.346-13.465-25.296-30.339-29.113-50.309c-5.639-29.493,2.262-55.527,22.171-77.928C74.135,24.7,90.685,16.123,108.759,11.52
				C117.357,9.473,126.13,9.682,126.13,9.682 M75.042,114.923c4.29-0.045,7.72-3.502,7.659-7.722
				c-0.061-4.171-3.654-7.647-7.85-7.593c-4.269,0.055-7.63,3.502-7.594,7.783C67.294,111.684,70.689,114.968,75.042,114.923
				 M99.761,154.261c0.047-4.24-3.368-7.73-7.622-7.79c-4.176-0.059-7.785,3.439-7.854,7.611c-0.069,4.186,3.406,7.691,7.673,7.741
				C96.259,161.874,99.714,158.526,99.761,154.261 M105.026,53.6c4.205,0.025,7.377-3.088,7.396-7.259
				c0.02-4.197-3.099-7.356-7.28-7.375c-4.176-0.019-7.391,3.13-7.411,7.258C97.711,50.385,100.866,53.574,105.026,53.6
				 M67.029,65.292c-3.007-0.015-5.434,2.268-5.476,5.153c-0.043,2.961,2.494,5.418,5.535,5.361c2.96-0.057,5.398-2.458,5.383-5.303
				C72.455,67.634,70.026,65.307,67.029,65.292 M102.836,89.458c2.809,0.006,5.067-2.168,5.108-4.919
				c0.041-2.727-2.196-5.014-4.968-5.082c-2.86-0.07-5.261,2.251-5.233,5.059C97.77,87.256,100.032,89.452,102.836,89.458
				 M97.713,122.947c-0.063-1.803-1.563-3.148-3.403-3.053c-1.697,0.089-3.084,1.522-3.077,3.182
				c0.007,1.718,1.599,3.263,3.324,3.226C96.318,126.265,97.775,124.715,97.713,122.947 M73.318,132.953
				c-0.005-1.668-1.463-3.062-3.182-2.941c-1.822,0.129-2.85,1.167-2.847,2.973c0.003,1.821,1.119,2.818,2.88,2.983
				C71.799,136.12,73.324,134.582,73.318,132.953"/>
			<path clip-path="url(#SVGID_4_)" fill-rule="evenodd" clip-rule="evenodd" fill="#FFFFFF" d="M157.244,21.725
				c-0.236,3.121,0.775,6.161,4.771,8.268c5.898,3.112,11.496,6.794,17.152,10.339c2.246,1.408,4.467,1.61,6.873,0.681
				c1.233-0.476,2.47-0.945,3.687-1.46c3.754-1.589,4.175-1.769,6.543,1.397c4.392,5.87,8.436,11.996,12.606,18.027
				c1.218,1.762,0.89,3.323-0.736,4.683c-0.534,0.446-0.979,0.996-1.5,1.459c-2.936,2.612-3.469,5.669-2.428,9.429
				c1.748,6.319,3.313,12.702,4.564,19.133c0.625,3.211,2.251,5.062,5.134,6.246c5.694,2.339,5.116,2.017,4.349,7.679
				c-0.849,6.257-2.175,12.451-3.263,18.678c-0.365,2.086-1.571,3.243-3.683,3.014c-5.357-0.583-8.65,1.794-11.198,6.384
				c-2.842,5.119-6.305,9.907-9.631,14.75c-1.974,2.877-1.991,5.671-0.519,8.721c2.624,5.436,2.712,5.634-2.189,9.29
				c-5.209,3.886-10.711,7.388-16.083,11.063c-1.613,1.104-3.014,0.835-4.376-0.503c-1.104-1.083-2.416-1.967-3.474-3.09
				c-2.214-2.352-4.871-2.828-7.9-2.18c-6.772,1.448-13.531,2.972-20.332,4.274c-3.039,0.582-4.821,2.192-5.741,5.021
				c-0.524,1.612-1.283,3.148-1.819,4.759c-0.713,2.146-2.183,2.846-4.327,2.494c-0.459-0.074-0.931-0.071-1.396-0.12
				c-2.836-0.294-3.042-0.506-2.574-3.316c1.583-9.515,3.205-19.023,4.81-28.534c0.424-2.511,0.918-5.013,1.232-7.538
				c0.198-1.585,0.878-2.343,2.523-2.326c12.014,0.119,22.424-4.175,31.4-11.802c7.548-6.412,13.036-14.355,15.249-24.086
				c2.976-13.092,1.467-25.65-5.819-37.19c-5.837-9.244-13.892-15.97-24.246-19.789c-2.338-0.862-2.832-2.096-2.431-4.374
				c2.055-11.704,3.986-23.43,5.982-35.145c0.537-3.149,0.57-3.145,3.758-2.277C157.311,15.17,157.335,15.204,157.244,21.725"/>
			<path display="none" clip-path="url(#SVGID_4_)" fill-rule="evenodd" clip-rule="evenodd" d="M75.028,114.923
				c-4.353,0.046-7.748-3.239-7.784-7.531c-0.037-4.281,3.325-7.728,7.593-7.784c4.195-0.054,7.789,3.422,7.85,7.593
				C82.748,111.421,79.318,114.878,75.028,114.923"/>
			<path display="none" clip-path="url(#SVGID_4_)" fill-rule="evenodd" clip-rule="evenodd" d="M99.747,154.261
				c-0.047,4.265-3.501,7.613-7.802,7.563c-4.267-0.051-7.742-3.557-7.673-7.742c0.069-4.172,3.678-7.67,7.854-7.611
				C96.379,146.53,99.793,150.021,99.747,154.261"/>
			<path display="none" clip-path="url(#SVGID_4_)" fill-rule="evenodd" clip-rule="evenodd" d="M105.012,53.6
				c-4.16-0.026-7.314-3.214-7.294-7.375c0.02-4.128,3.235-7.278,7.411-7.259c4.181,0.019,7.299,3.178,7.279,7.375
				C112.389,50.512,109.217,53.625,105.012,53.6"/>
			<path display="none" clip-path="url(#SVGID_4_)" fill-rule="evenodd" clip-rule="evenodd" d="M67.016,65.292
				c2.997,0.015,5.426,2.342,5.441,5.211c0.016,2.845-2.423,5.247-5.383,5.303c-3.041,0.058-5.577-2.399-5.535-5.36
				C61.581,67.56,64.007,65.277,67.016,65.292"/>
			<path display="none" clip-path="url(#SVGID_4_)" fill-rule="evenodd" clip-rule="evenodd" d="M102.823,89.458
				c-2.805-0.006-5.066-2.201-5.093-4.943c-0.027-2.807,2.374-5.128,5.233-5.059c2.773,0.067,5.009,2.355,4.968,5.082
				C107.89,87.29,105.632,89.465,102.823,89.458"/>
			<path display="none" clip-path="url(#SVGID_4_)" fill-rule="evenodd" clip-rule="evenodd" d="M97.7,122.947
				c0.062,1.768-1.396,3.317-3.156,3.355c-1.725,0.036-3.316-1.51-3.324-3.227c-0.007-1.659,1.379-3.094,3.077-3.182
				C96.137,119.799,97.637,121.145,97.7,122.947"/>
			<path display="none" clip-path="url(#SVGID_4_)" fill-rule="evenodd" clip-rule="evenodd" d="M73.305,132.953
				c0.006,1.629-1.519,3.167-3.149,3.015c-1.761-0.165-2.876-1.162-2.88-2.983c-0.003-1.806,1.025-2.844,2.847-2.973
				C71.842,129.892,73.299,131.285,73.305,132.953"/>
		</g>
	</g>
</g>
</svg>
